<svg width="192" height="134" viewBox="0 0 192 134" fill="none" xmlns="http://www.w3.org/2000/svg">
<rect x="4" y="4" width="184" height="100" rx="8" stroke="white" stroke-width="8"/>
<mask id="path-2-outside-1_167_626" maskUnits="userSpaceOnUse" x="11" y="22" width="70" height="69" fill="black">
<rect fill="white" x="11" y="22" width="70" height="69"/>
<path d="M30.936 79.904L35.04 87.32L40.512 87.752C43.68 87.752 45.888 86.504 47.136 84.008C48.096 80.936 48.864 77.024 49.44 72.272C50.016 67.472 50.376 63.344 50.52 59.888L47.064 56.576H32.952C33.144 54.368 33.24 52.4 33.24 50.672V48.296H44.256C44.256 49.64 44.16 50.816 43.968 51.824H50.088C49.848 50.624 49.728 49.352 49.728 48.008V25.256H18.84V48.008C18.84 49.496 18.72 50.768 18.48 51.824H24.6C24.408 50.576 24.288 49.4 24.24 48.296H27.768C27.768 66.152 22.992 77.912 13.44 83.576L18.768 88.904C25.968 83.336 30.528 74.36 32.448 61.976H44.832C44.88 62.504 44.904 63.488 44.904 64.928C44.904 66.368 44.544 69.344 43.824 73.856C43.152 78.32 42.552 81.056 42.024 82.064C41.736 82.16 41.352 82.208 40.872 82.208C38.952 82.208 35.64 81.44 30.936 79.904ZM58.44 80.12L63.264 87.464C66.624 87.704 69.888 87.824 73.056 87.824C76.992 87.824 78.96 85.976 78.96 82.28V27.056C78.96 25.712 79.08 24.56 79.32 23.6H73.2C73.44 24.608 73.56 25.76 73.56 27.056V80.48C73.56 81.776 72.96 82.424 71.76 82.424C66.096 82.424 61.656 81.656 58.44 80.12ZM57.144 70.184C57.144 71.192 57.024 72.08 56.784 72.848H62.976C62.736 71.84 62.616 70.784 62.616 69.68V31.016C62.616 29.72 62.736 28.616 62.976 27.704H56.784C57.024 28.184 57.144 29.288 57.144 31.016V70.184ZM24.24 43.4V30.44H44.256V43.4H24.24Z"/>
</mask>
<path d="M30.936 79.904L35.04 87.32L40.512 87.752C43.68 87.752 45.888 86.504 47.136 84.008C48.096 80.936 48.864 77.024 49.44 72.272C50.016 67.472 50.376 63.344 50.52 59.888L47.064 56.576H32.952C33.144 54.368 33.24 52.4 33.24 50.672V48.296H44.256C44.256 49.64 44.16 50.816 43.968 51.824H50.088C49.848 50.624 49.728 49.352 49.728 48.008V25.256H18.84V48.008C18.84 49.496 18.72 50.768 18.48 51.824H24.6C24.408 50.576 24.288 49.4 24.24 48.296H27.768C27.768 66.152 22.992 77.912 13.44 83.576L18.768 88.904C25.968 83.336 30.528 74.36 32.448 61.976H44.832C44.88 62.504 44.904 63.488 44.904 64.928C44.904 66.368 44.544 69.344 43.824 73.856C43.152 78.32 42.552 81.056 42.024 82.064C41.736 82.16 41.352 82.208 40.872 82.208C38.952 82.208 35.64 81.44 30.936 79.904ZM58.44 80.12L63.264 87.464C66.624 87.704 69.888 87.824 73.056 87.824C76.992 87.824 78.96 85.976 78.96 82.28V27.056C78.96 25.712 79.08 24.56 79.32 23.6H73.2C73.44 24.608 73.56 25.76 73.56 27.056V80.48C73.56 81.776 72.96 82.424 71.76 82.424C66.096 82.424 61.656 81.656 58.44 80.12ZM57.144 70.184C57.144 71.192 57.024 72.08 56.784 72.848H62.976C62.736 71.84 62.616 70.784 62.616 69.68V31.016C62.616 29.72 62.736 28.616 62.976 27.704H56.784C57.024 28.184 57.144 29.288 57.144 31.016V70.184ZM24.24 43.4V30.44H44.256V43.4H24.24Z" fill="white"/>
<path d="M30.936 79.904L31.2464 78.9534L28.8305 78.1645L30.061 80.3882L30.936 79.904ZM35.04 87.32L34.165 87.8042L34.4254 88.2746L34.9613 88.3169L35.04 87.32ZM40.512 87.752L40.4333 88.7489L40.4726 88.752H40.512V87.752ZM47.136 84.008L48.0304 84.4552L48.0665 84.3832L48.0905 84.3063L47.136 84.008ZM49.44 72.272L50.4327 72.3923L50.4329 72.3911L49.44 72.272ZM50.52 59.888L51.5191 59.9296L51.5379 59.4785L51.2119 59.166L50.52 59.888ZM47.064 56.576L47.7559 55.854L47.4658 55.576H47.064V56.576ZM32.952 56.576L31.9558 56.4894L31.8613 57.576H32.952V56.576ZM33.24 48.296V47.296H32.24V48.296H33.24ZM44.256 48.296H45.256V47.296H44.256V48.296ZM43.968 51.824L42.9857 51.6369L42.7595 52.824H43.968V51.824ZM50.088 51.824V52.824H51.3078L51.0686 51.6279L50.088 51.824ZM49.728 25.256H50.728V24.256H49.728V25.256ZM18.84 25.256V24.256H17.84V25.256H18.84ZM18.48 51.824L17.5049 51.6024L17.2272 52.824H18.48V51.824ZM24.6 51.824V52.824H25.7656L25.5884 51.6719L24.6 51.824ZM24.24 48.296V47.296H23.1956L23.2409 48.3394L24.24 48.296ZM27.768 48.296H28.768V47.296H27.768V48.296ZM13.44 83.576L12.93 82.7159L11.8224 83.3726L12.7329 84.2831L13.44 83.576ZM18.768 88.904L18.0609 89.6111L18.6834 90.2336L19.3797 89.6951L18.768 88.904ZM32.448 61.976V60.976H31.5911L31.4598 61.8228L32.448 61.976ZM44.832 61.976L45.8279 61.8855L45.7452 60.976H44.832V61.976ZM43.824 73.856L42.8365 73.6984L42.8351 73.7071L43.824 73.856ZM42.024 82.064L42.3402 83.0127L42.7227 82.8852L42.9098 82.528L42.024 82.064ZM58.44 80.12L58.871 79.2176L55.6359 77.6725L57.6042 80.669L58.44 80.12ZM63.264 87.464L62.4282 88.013L62.6996 88.4262L63.1928 88.4615L63.264 87.464ZM79.32 23.6L80.2901 23.8425L80.6008 22.6H79.32V23.6ZM73.2 23.6V22.6H71.934L72.2272 23.8316L73.2 23.6ZM56.784 72.848L55.8295 72.5497L55.4238 73.848H56.784V72.848ZM62.976 72.848V73.848H64.2421L63.9488 72.6164L62.976 72.848ZM62.976 27.704L63.9431 27.9585L64.2732 26.704H62.976V27.704ZM56.784 27.704V26.704H55.166L55.8896 28.1512L56.784 27.704ZM24.24 43.4H23.24V44.4H24.24V43.4ZM24.24 30.44V29.44H23.24V30.44H24.24ZM44.256 30.44H45.256V29.44H44.256V30.44ZM44.256 43.4V44.4H45.256V43.4H44.256ZM30.061 80.3882L34.165 87.8042L35.915 86.8358L31.811 79.4198L30.061 80.3882ZM34.9613 88.3169L40.4333 88.7489L40.5907 86.7551L35.1187 86.3231L34.9613 88.3169ZM40.512 88.752C42.2261 88.752 43.7489 88.4141 45.0361 87.6866C46.3306 86.9549 47.3267 85.8626 48.0304 84.4552L46.2416 83.5608C45.6973 84.6494 44.9654 85.4291 44.0519 85.9454C43.1311 86.4659 41.9659 86.752 40.512 86.752V88.752ZM48.0905 84.3063C49.0751 81.1556 49.8526 77.1786 50.4327 72.3923L48.4473 72.1517C47.8754 76.8694 47.1169 80.7164 46.1815 83.7097L48.0905 84.3063ZM50.4329 72.3911C51.0109 67.5747 51.3737 63.4194 51.5191 59.9296L49.5209 59.8464C49.3783 63.2686 49.0211 67.3693 48.4471 72.1529L50.4329 72.3911ZM51.2119 59.166L47.7559 55.854L46.3721 57.298L49.8281 60.61L51.2119 59.166ZM47.064 55.576H32.952V57.576H47.064V55.576ZM33.9482 56.6626C34.1421 54.4334 34.24 52.4356 34.24 50.672H32.24C32.24 52.3644 32.1459 54.3026 31.9558 56.4894L33.9482 56.6626ZM34.24 50.672V48.296H32.24V50.672H34.24ZM33.24 49.296H44.256V47.296H33.24V49.296ZM43.256 48.296C43.256 49.5953 43.163 50.7061 42.9857 51.6369L44.9503 52.0111C45.157 50.9259 45.256 49.6847 45.256 48.296H43.256ZM43.968 52.824H50.088V50.824H43.968V52.824ZM51.0686 51.6279C50.8427 50.4984 50.728 49.2925 50.728 48.008H48.728C48.728 49.4115 48.8533 50.7496 49.1074 52.0201L51.0686 51.6279ZM50.728 48.008V25.256H48.728V48.008H50.728ZM49.728 24.256H18.84V26.256H49.728V24.256ZM17.84 25.256V48.008H19.84V25.256H17.84ZM17.84 48.008C17.84 49.447 17.7235 50.6404 17.5049 51.6024L19.4551 52.0456C19.7165 50.8956 19.84 49.545 19.84 48.008H17.84ZM18.48 52.824H24.6V50.824H18.48V52.824ZM25.5884 51.6719C25.4011 50.455 25.2853 49.3155 25.2391 48.2526L23.2409 48.3394C23.2907 49.4845 23.4149 50.697 23.6116 51.9761L25.5884 51.6719ZM24.24 49.296H27.768V47.296H24.24V49.296ZM26.768 48.296C26.768 66.0243 22.0247 77.323 12.93 82.7159L13.95 84.4361C23.9593 78.501 28.768 66.2797 28.768 48.296H26.768ZM12.7329 84.2831L18.0609 89.6111L19.4751 88.1969L14.1471 82.8689L12.7329 84.2831ZM19.3797 89.6951C26.8482 83.9194 31.4919 74.6696 33.4362 62.1292L31.4598 61.8228C29.5641 74.0504 25.0878 82.7525 18.1563 88.1129L19.3797 89.6951ZM32.448 62.976H44.832V60.976H32.448V62.976ZM43.8361 62.0665C43.8794 62.543 43.904 63.4838 43.904 64.928H45.904C45.904 63.4922 45.8806 62.465 45.8279 61.8855L43.8361 62.0665ZM43.904 64.928C43.904 66.2744 43.5591 69.1699 42.8365 73.6984L44.8115 74.0136C45.5289 69.5181 45.904 66.4616 45.904 64.928H43.904ZM42.8351 73.7071C42.5007 75.9287 42.1865 77.7044 41.8932 79.0418C41.5926 80.4128 41.333 81.228 41.1382 81.6L42.9098 82.528C43.243 81.892 43.5475 80.8352 43.8468 79.4702C44.1535 78.0716 44.4753 76.2473 44.8129 74.0049L42.8351 73.7071ZM41.7078 81.1153C41.5633 81.1635 41.2994 81.208 40.872 81.208V83.208C41.4046 83.208 41.9087 83.1565 42.3402 83.0127L41.7078 81.1153ZM40.872 81.208C39.1311 81.208 35.9598 80.4925 31.2464 78.9534L30.6256 80.8546C35.3202 82.3875 38.7729 83.208 40.872 83.208V81.208ZM57.6042 80.669L62.4282 88.013L64.0998 86.915L59.2758 79.571L57.6042 80.669ZM63.1928 88.4615C66.575 88.703 69.8628 88.824 73.056 88.824V86.824C69.9132 86.824 66.673 86.705 63.3352 86.4665L63.1928 88.4615ZM73.056 88.824C75.163 88.824 76.9294 88.3306 78.1685 87.167C79.4195 85.9923 79.96 84.2988 79.96 82.28H77.96C77.96 83.9572 77.5165 85.0357 76.7995 85.709C76.0706 86.3934 74.885 86.824 73.056 86.824V88.824ZM79.96 82.28V27.056H77.96V82.28H79.96ZM79.96 27.056C79.96 25.7667 80.0756 24.7007 80.2901 23.8425L78.3499 23.3575C78.0844 24.4193 77.96 25.6573 77.96 27.056H79.96ZM79.32 22.6H73.2V24.6H79.32V22.6ZM72.2272 23.8316C72.4453 24.7476 72.56 25.8195 72.56 27.056H74.56C74.56 25.7005 74.4347 24.4684 74.1728 23.3684L72.2272 23.8316ZM72.56 27.056V80.48H74.56V27.056H72.56ZM72.56 80.48C72.56 80.9921 72.4399 81.1899 72.3762 81.2586C72.3261 81.3128 72.1853 81.424 71.76 81.424V83.424C72.5347 83.424 73.2939 83.2112 73.8438 82.6174C74.3801 82.0381 74.56 81.2639 74.56 80.48H72.56ZM71.76 81.424C66.1668 81.424 61.8961 80.6625 58.871 79.2176L58.009 81.0224C61.4159 82.6495 66.0253 83.424 71.76 83.424V81.424ZM56.144 70.184C56.144 71.1152 56.0328 71.8991 55.8295 72.5497L57.7385 73.1463C58.0152 72.2609 58.144 71.2688 58.144 70.184H56.144ZM56.784 73.848H62.976V71.848H56.784V73.848ZM63.9488 72.6164C63.728 71.689 63.616 70.7111 63.616 69.68H61.616C61.616 70.8569 61.744 71.991 62.0032 73.0796L63.9488 72.6164ZM63.616 69.68V31.016H61.616V69.68H63.616ZM63.616 31.016C63.616 29.7763 63.7314 28.763 63.9431 27.9585L62.0089 27.4495C61.7406 28.469 61.616 29.6637 61.616 31.016H63.616ZM62.976 26.704H56.784V28.704H62.976V26.704ZM55.8896 28.1512C55.9252 28.2225 56.002 28.4674 56.0599 29.0001C56.1144 29.5022 56.144 30.1706 56.144 31.016H58.144C58.144 30.1333 58.1136 29.3858 58.0481 28.7839C57.986 28.2126 57.8828 27.6655 57.6784 27.2568L55.8896 28.1512ZM56.144 31.016V70.184H58.144V31.016H56.144ZM25.24 43.4V30.44H23.24V43.4H25.24ZM24.24 31.44H44.256V29.44H24.24V31.44ZM43.256 30.44V43.4H45.256V30.44H43.256ZM44.256 42.4H24.24V44.4H44.256V42.4Z" fill="white" mask="url(#path-2-outside-1_167_626)"/>
<rect x="92" width="8" height="105" fill="white"/>
<mask id="path-5-outside-2_167_626" maskUnits="userSpaceOnUse" x="107" y="21" width="74" height="68" fill="black">
<rect fill="white" x="107" y="21" width="74" height="68"/>
<path d="M166.968 84.224L172.224 79.328C167.472 77.648 163.008 74.144 158.832 68.816C157.92 67.424 157.464 66.488 157.464 66.008L151.704 68.384C156.312 74.336 160.512 78.824 164.304 81.848C165.264 82.616 166.152 83.408 166.968 84.224ZM130.536 66.008C130.536 66.68 130.08 67.616 129.168 68.816C125.616 73.52 120.936 77.096 115.128 79.544L121.032 84.224C127.128 80.528 132.216 75.32 136.296 68.6L130.536 66.008ZM146.808 57.008V54.128C146.808 52.832 146.928 51.632 147.168 50.528H141.048C141.24 51.584 141.336 52.76 141.336 54.056V57.008H128.016C134.448 53.168 139.776 48.632 144 43.4C148.128 48.488 153.408 53.024 159.84 57.008H146.808ZM158.616 22.16H152.424C152.664 23.168 152.784 24.272 152.784 25.472V29.432H135.216V25.616C135.216 24.224 135.336 23.072 135.576 22.16H129.456C129.648 23.168 129.744 24.32 129.744 25.616V29.432H115.416C113.4 29.432 112.008 29.312 111.24 29.072V35.264C111.48 35.024 112.92 34.904 115.56 34.904H129.744V40.16C129.744 41.552 129.624 42.56 129.384 43.184H135.576C135.336 42.128 135.216 41.024 135.216 39.872V34.904H152.784V40.376C152.784 41.384 152.664 42.32 152.424 43.184H158.544C158.352 42.128 158.256 41 158.256 39.8V34.904H173.376C174.816 34.904 175.944 35.024 176.76 35.264V29.072C175.704 29.312 174.528 29.432 173.232 29.432H158.256V25.328C158.256 23.696 158.376 22.64 158.616 22.16ZM163.08 58.952C165 60.008 167.328 61.136 170.064 62.336C172.8 63.584 174.24 64.28 174.384 64.424L178.704 58.304C164.4 55.088 154.152 48.824 147.96 39.512L147.24 37.64H140.76C136.824 45.032 130.128 50.768 120.672 54.848C116.4 56.72 112.56 57.8 109.152 58.088L113.616 64.424C117.216 63.128 120.984 61.28 124.92 58.88V62.84C125.928 62.6 127.296 62.48 129.024 62.48H141.336V84.8C141.336 85.904 141.216 86.864 140.976 87.68H147.024C146.832 86.576 146.736 85.4 146.736 84.152V62.48H159.84C161.04 62.48 162.12 62.6 163.08 62.84V58.952Z"/>
</mask>
<path d="M166.968 84.224L172.224 79.328C167.472 77.648 163.008 74.144 158.832 68.816C157.92 67.424 157.464 66.488 157.464 66.008L151.704 68.384C156.312 74.336 160.512 78.824 164.304 81.848C165.264 82.616 166.152 83.408 166.968 84.224ZM130.536 66.008C130.536 66.68 130.08 67.616 129.168 68.816C125.616 73.52 120.936 77.096 115.128 79.544L121.032 84.224C127.128 80.528 132.216 75.32 136.296 68.6L130.536 66.008ZM146.808 57.008V54.128C146.808 52.832 146.928 51.632 147.168 50.528H141.048C141.24 51.584 141.336 52.76 141.336 54.056V57.008H128.016C134.448 53.168 139.776 48.632 144 43.4C148.128 48.488 153.408 53.024 159.84 57.008H146.808ZM158.616 22.16H152.424C152.664 23.168 152.784 24.272 152.784 25.472V29.432H135.216V25.616C135.216 24.224 135.336 23.072 135.576 22.16H129.456C129.648 23.168 129.744 24.32 129.744 25.616V29.432H115.416C113.4 29.432 112.008 29.312 111.24 29.072V35.264C111.48 35.024 112.92 34.904 115.56 34.904H129.744V40.16C129.744 41.552 129.624 42.56 129.384 43.184H135.576C135.336 42.128 135.216 41.024 135.216 39.872V34.904H152.784V40.376C152.784 41.384 152.664 42.32 152.424 43.184H158.544C158.352 42.128 158.256 41 158.256 39.8V34.904H173.376C174.816 34.904 175.944 35.024 176.76 35.264V29.072C175.704 29.312 174.528 29.432 173.232 29.432H158.256V25.328C158.256 23.696 158.376 22.64 158.616 22.16ZM163.08 58.952C165 60.008 167.328 61.136 170.064 62.336C172.8 63.584 174.24 64.28 174.384 64.424L178.704 58.304C164.4 55.088 154.152 48.824 147.96 39.512L147.24 37.64H140.76C136.824 45.032 130.128 50.768 120.672 54.848C116.4 56.72 112.56 57.8 109.152 58.088L113.616 64.424C117.216 63.128 120.984 61.28 124.92 58.88V62.84C125.928 62.6 127.296 62.48 129.024 62.48H141.336V84.8C141.336 85.904 141.216 86.864 140.976 87.68H147.024C146.832 86.576 146.736 85.4 146.736 84.152V62.48H159.84C161.04 62.48 162.12 62.6 163.08 62.84V58.952Z" fill="white"/>
<path d="M166.968 84.224L166.261 84.9311L166.943 85.6136L167.65 84.9557L166.968 84.224ZM172.224 79.328L172.906 80.0597L174.113 78.9351L172.557 78.3852L172.224 79.328ZM158.832 68.816L157.996 69.364L158.019 69.3995L158.045 69.4329L158.832 68.816ZM157.464 66.008H158.464V64.5138L157.083 65.0836L157.464 66.008ZM151.704 68.384L151.323 67.4596L150.111 67.9595L150.913 68.9962L151.704 68.384ZM164.304 81.848L164.929 81.0671L164.927 81.0662L164.304 81.848ZM130.536 66.008L130.946 65.0961L129.536 64.4614V66.008H130.536ZM129.168 68.816L128.372 68.2109L128.37 68.2134L129.168 68.816ZM115.128 79.544L114.74 78.6225L113.183 79.2785L114.507 80.3277L115.128 79.544ZM121.032 84.224L120.411 85.0077L120.956 85.4397L121.55 85.0791L121.032 84.224ZM136.296 68.6L137.151 69.119L137.738 68.1522L136.706 67.6881L136.296 68.6ZM146.808 57.008H145.808V58.008H146.808V57.008ZM147.168 50.528L148.145 50.7404L148.409 49.528H147.168V50.528ZM141.048 50.528V49.528H139.85L140.064 50.7069L141.048 50.528ZM141.336 57.008V58.008H142.336V57.008H141.336ZM128.016 57.008L127.503 56.1494L124.39 58.008H128.016V57.008ZM144 43.4L144.777 42.77L143.998 41.8104L143.222 42.7718L144 43.4ZM159.84 57.008V58.008H163.354L160.367 56.1579L159.84 57.008ZM158.616 22.16L159.51 22.6072L160.234 21.16H158.616V22.16ZM152.424 22.16V21.16H151.158L151.451 22.3916L152.424 22.16ZM152.784 29.432V30.432H153.784V29.432H152.784ZM135.216 29.432H134.216V30.432H135.216V29.432ZM135.576 22.16L136.543 22.4145L136.873 21.16H135.576V22.16ZM129.456 22.16V21.16H128.248L128.474 22.3471L129.456 22.16ZM129.744 29.432V30.432H130.744V29.432H129.744ZM111.24 29.072L111.538 28.1175L110.24 27.7118V29.072H111.24ZM111.24 35.264H110.24V37.6782L111.947 35.9711L111.24 35.264ZM129.744 34.904H130.744V33.904H129.744V34.904ZM129.384 43.184L128.451 42.825L127.928 44.184H129.384V43.184ZM135.576 43.184V44.184H136.829L136.551 42.9624L135.576 43.184ZM135.216 34.904V33.904H134.216V34.904H135.216ZM152.784 34.904H153.784V33.904H152.784V34.904ZM152.424 43.184L151.46 42.9164L151.108 44.184H152.424V43.184ZM158.544 43.184V44.184H159.742L159.528 43.0051L158.544 43.184ZM158.256 34.904V33.904H157.256V34.904H158.256ZM176.76 35.264L176.478 36.2234L177.76 36.6005V35.264H176.76ZM176.76 29.072H177.76V27.8192L176.538 28.0969L176.76 29.072ZM158.256 29.432H157.256V30.432H158.256V29.432ZM163.08 58.952L163.562 58.0758L162.08 57.2607V58.952H163.08ZM170.064 62.336L170.479 61.4262L170.472 61.4231L170.466 61.4202L170.064 62.336ZM174.384 64.424L173.677 65.1311L174.516 65.9706L175.201 65.0007L174.384 64.424ZM178.704 58.304L179.521 58.8807L180.385 57.6569L178.923 57.3284L178.704 58.304ZM147.96 39.512L147.027 39.871L147.066 39.9739L147.127 40.0657L147.96 39.512ZM147.24 37.64L148.173 37.281L147.927 36.64H147.24V37.64ZM140.76 37.64V36.64H140.16L139.877 37.17L140.76 37.64ZM120.672 54.848L120.276 53.9298L120.271 53.9321L120.672 54.848ZM109.152 58.088L109.068 57.0915L107.33 57.2384L108.335 58.664L109.152 58.088ZM113.616 64.424L112.799 65L113.238 65.6231L113.955 65.3649L113.616 64.424ZM124.92 58.88H125.92V57.099L124.399 58.0262L124.92 58.88ZM124.92 62.84H123.92V64.106L125.152 63.8128L124.92 62.84ZM141.336 62.48H142.336V61.48H141.336V62.48ZM140.976 87.68L140.017 87.3978L139.64 88.68H140.976V87.68ZM147.024 87.68V88.68H148.213L148.009 87.5087L147.024 87.68ZM146.736 62.48V61.48H145.736V62.48H146.736ZM163.08 62.84L162.837 63.8101L164.08 64.1208V62.84H163.08ZM167.65 84.9557L172.906 80.0597L171.542 78.5963L166.286 83.4923L167.65 84.9557ZM172.557 78.3852C168.036 76.7868 163.717 73.4275 159.619 68.1991L158.045 69.4329C162.299 74.8605 166.908 78.5092 171.891 80.2708L172.557 78.3852ZM159.668 68.268C159.224 67.5891 158.907 67.0465 158.705 66.632C158.483 66.177 158.464 66.0016 158.464 66.008H156.464C156.464 66.4944 156.673 67.027 156.907 67.508C157.161 68.0295 157.528 68.6509 157.996 69.364L159.668 68.268ZM157.083 65.0836L151.323 67.4596L152.085 69.3084L157.845 66.9324L157.083 65.0836ZM150.913 68.9962C155.546 74.9807 159.802 79.5368 163.681 82.6298L164.927 81.0662C161.222 78.1112 157.078 73.6913 152.495 67.7718L150.913 68.9962ZM163.679 82.6289C164.612 83.3753 165.473 84.1428 166.261 84.9311L167.675 83.5169C166.831 82.6732 165.916 81.8567 164.929 81.0671L163.679 82.6289ZM129.536 66.008C129.536 66.1316 129.489 66.3768 129.295 66.776C129.105 67.1654 128.804 67.6421 128.372 68.2109L129.964 69.4211C130.444 68.7899 130.827 68.1986 131.093 67.652C131.355 67.1152 131.536 66.5564 131.536 66.008H129.536ZM128.37 68.2134C124.931 72.7671 120.397 76.238 114.74 78.6225L115.516 80.4655C121.475 77.954 126.301 74.2729 129.966 69.4186L128.37 68.2134ZM114.507 80.3277L120.411 85.0077L121.653 83.4403L115.749 78.7603L114.507 80.3277ZM121.55 85.0791C127.798 81.2914 132.996 75.9621 137.151 69.119L135.441 68.081C131.436 74.6779 126.458 79.7646 120.514 83.3689L121.55 85.0791ZM136.706 67.6881L130.946 65.0961L130.126 66.9199L135.886 69.5119L136.706 67.6881ZM147.808 57.008V54.128H145.808V57.008H147.808ZM147.808 54.128C147.808 52.8932 147.922 51.7653 148.145 50.7404L146.191 50.3156C145.934 51.4987 145.808 52.7708 145.808 54.128H147.808ZM147.168 49.528H141.048V51.528H147.168V49.528ZM140.064 50.7069C140.243 51.6932 140.336 52.8081 140.336 54.056H142.336C142.336 52.7119 142.237 51.4748 142.032 50.3491L140.064 50.7069ZM140.336 54.056V57.008H142.336V54.056H140.336ZM141.336 56.008H128.016V58.008H141.336V56.008ZM128.529 57.8666C135.051 53.9729 140.472 49.3619 144.778 44.0282L143.222 42.7718C139.08 47.9021 133.845 52.363 127.503 56.1494L128.529 57.8666ZM143.223 44.03C147.432 49.2171 152.801 53.8242 159.313 57.8581L160.367 56.1579C154.015 52.2238 148.824 47.7589 144.777 42.77L143.223 44.03ZM159.84 56.008H146.808V58.008H159.84V56.008ZM158.616 21.16H152.424V23.16H158.616V21.16ZM151.451 22.3916C151.671 23.3129 151.784 24.338 151.784 25.472H153.784C153.784 24.206 153.657 23.0231 153.397 21.9284L151.451 22.3916ZM151.784 25.472V29.432H153.784V25.472H151.784ZM152.784 28.432H135.216V30.432H152.784V28.432ZM136.216 29.432V25.616H134.216V29.432H136.216ZM136.216 25.616C136.216 24.2732 136.333 23.2142 136.543 22.4145L134.609 21.9055C134.339 22.9298 134.216 24.1747 134.216 25.616H136.216ZM135.576 21.16H129.456V23.16H135.576V21.16ZM128.474 22.3471C128.651 23.2798 128.744 24.3672 128.744 25.616H130.744C130.744 24.2728 130.645 23.0562 130.438 21.9729L128.474 22.3471ZM128.744 25.616V29.432H130.744V25.616H128.744ZM129.744 28.432H115.416V30.432H129.744V28.432ZM115.416 28.432C113.394 28.432 112.144 28.3067 111.538 28.1175L110.942 30.0265C111.872 30.3173 113.406 30.432 115.416 30.432V28.432ZM110.24 29.072V35.264H112.24V29.072H110.24ZM111.947 35.9711C111.884 36.0343 111.827 36.0702 111.799 36.0866C111.769 36.1039 111.75 36.1113 111.749 36.1116C111.747 36.1124 111.754 36.1094 111.774 36.104C111.792 36.0986 111.819 36.0919 111.855 36.0843C112.004 36.0522 112.241 36.019 112.583 35.9905C113.262 35.934 114.249 35.904 115.56 35.904V33.904C114.231 33.904 113.178 33.934 112.417 33.9975C112.039 34.029 111.706 34.0708 111.435 34.1287C111.301 34.1576 111.158 34.1952 111.024 34.2476C110.906 34.2935 110.707 34.3829 110.533 34.5569L111.947 35.9711ZM115.56 35.904H129.744V33.904H115.56V35.904ZM128.744 34.904V40.16H130.744V34.904H128.744ZM128.744 40.16C128.744 41.5329 128.62 42.3835 128.451 42.825L130.317 43.543C130.628 42.7365 130.744 41.571 130.744 40.16H128.744ZM129.384 44.184H135.576V42.184H129.384V44.184ZM136.551 42.9624C136.329 41.9836 136.216 40.9542 136.216 39.872H134.216C134.216 41.0938 134.343 42.2724 134.601 43.4056L136.551 42.9624ZM136.216 39.872V34.904H134.216V39.872H136.216ZM135.216 35.904H152.784V33.904H135.216V35.904ZM151.784 34.904V40.376H153.784V34.904H151.784ZM151.784 40.376C151.784 41.3046 151.673 42.1495 151.46 42.9164L153.388 43.4516C153.655 42.4905 153.784 41.4634 153.784 40.376H151.784ZM152.424 44.184H158.544V42.184H152.424V44.184ZM159.528 43.0051C159.348 42.0146 159.256 40.9469 159.256 39.8H157.256C157.256 41.0531 157.356 42.2414 157.56 43.3629L159.528 43.0051ZM159.256 39.8V34.904H157.256V39.8H159.256ZM158.256 35.904H173.376V33.904H158.256V35.904ZM173.376 35.904C174.777 35.904 175.795 36.0226 176.478 36.2234L177.042 34.3046C176.093 34.0254 174.855 33.904 173.376 33.904V35.904ZM177.76 35.264V29.072H175.76V35.264H177.76ZM176.538 28.0969C175.568 28.3175 174.468 28.432 173.232 28.432V30.432C174.588 30.432 175.84 30.3065 176.982 30.0471L176.538 28.0969ZM173.232 28.432H158.256V30.432H173.232V28.432ZM159.256 29.432V25.328H157.256V29.432H159.256ZM159.256 25.328C159.256 24.5321 159.285 23.9012 159.34 23.4249C159.397 22.9222 159.472 22.6836 159.51 22.6072L157.722 21.7128C157.52 22.1164 157.415 22.6458 157.352 23.1991C157.287 23.7788 157.256 24.4919 157.256 25.328H159.256ZM162.598 59.8282C164.552 60.9027 166.908 62.0438 169.662 63.2518L170.466 61.4202C167.748 60.2282 165.448 59.1133 163.562 58.0758L162.598 59.8282ZM169.649 63.2458C171.015 63.8689 172.051 64.3513 172.761 64.6944C173.117 64.8664 173.383 64.9996 173.564 65.096C173.656 65.1446 173.717 65.1788 173.753 65.2006C173.821 65.2415 173.757 65.2113 173.677 65.1311L175.091 63.7169C174.975 63.6007 174.835 63.5173 174.785 63.4876C174.705 63.4389 174.608 63.3854 174.502 63.329C174.287 63.2154 173.995 63.0696 173.631 62.8937C172.901 62.5407 171.849 62.0511 170.479 61.4262L169.649 63.2458ZM175.201 65.0007L179.521 58.8807L177.887 57.7273L173.567 63.8473L175.201 65.0007ZM178.923 57.3284C164.79 54.1507 154.802 47.9958 148.793 38.9583L147.127 40.0657C153.502 49.6522 164.01 56.0253 178.485 59.2796L178.923 57.3284ZM148.893 39.153L148.173 37.281L146.307 37.999L147.027 39.871L148.893 39.153ZM147.24 36.64H140.76V38.64H147.24V36.64ZM139.877 37.17C136.071 44.3191 129.573 49.9185 120.276 53.9298L121.068 55.7662C130.683 51.6175 137.577 45.7449 141.643 38.11L139.877 37.17ZM120.271 53.9321C116.065 55.7749 112.335 56.8155 109.068 57.0915L109.236 59.0844C112.785 58.7845 116.735 57.6651 121.073 55.7639L120.271 53.9321ZM108.335 58.664L112.799 65L114.433 63.848L109.969 57.512L108.335 58.664ZM113.955 65.3649C117.629 64.042 121.458 62.162 125.441 59.7338L124.399 58.0262C120.51 60.398 116.803 62.214 113.277 63.4831L113.955 65.3649ZM123.92 58.88V62.84H125.92V58.88H123.92ZM125.152 63.8128C126.05 63.5989 127.33 63.48 129.024 63.48V61.48C127.262 61.48 125.806 61.6011 124.688 61.8672L125.152 63.8128ZM129.024 63.48H141.336V61.48H129.024V63.48ZM140.336 62.48V84.8H142.336V62.48H140.336ZM140.336 84.8C140.336 85.8353 140.223 86.696 140.017 87.3978L141.935 87.9622C142.209 87.032 142.336 85.9727 142.336 84.8H140.336ZM140.976 88.68H147.024V86.68H140.976V88.68ZM148.009 87.5087C147.828 86.4672 147.736 85.3489 147.736 84.152H145.736C145.736 85.451 145.836 86.6848 146.039 87.8513L148.009 87.5087ZM147.736 84.152V62.48H145.736V84.152H147.736ZM146.736 63.48H159.84V61.48H146.736V63.48ZM159.84 63.48C160.975 63.48 161.971 63.5936 162.837 63.8101L163.323 61.8699C162.269 61.6064 161.105 61.48 159.84 61.48V63.48ZM164.08 62.84V58.952H162.08V62.84H164.08Z" fill="white" mask="url(#path-5-outside-2_167_626)"/>
<path d="M10.6523 133.376V131.912H11.9003C12.1243 131.912 12.3083 131.856 12.4523 131.744C12.5963 131.632 12.7003 131.48 12.7643 131.288C12.8283 131.08 12.8603 130.848 12.8603 130.592V119.024C12.8603 118.672 12.8043 118.408 12.6923 118.232C12.5803 118.04 12.4443 117.904 12.2843 117.824C12.1403 117.744 11.9883 117.704 11.8283 117.704H10.6523V116.24H18.5243C20.9563 116.24 22.8123 116.56 24.0923 117.2C25.3723 117.824 26.0123 118.896 26.0123 120.416C26.0123 121.152 25.8443 121.776 25.5083 122.288C25.1723 122.8 24.7323 123.216 24.1883 123.536C23.6443 123.84 23.0523 124.072 22.4123 124.232V124.352C23.2603 124.496 24.0043 124.744 24.6443 125.096C25.2843 125.448 25.7883 125.912 26.1563 126.488C26.5243 127.064 26.7083 127.776 26.7083 128.624C26.7083 130.208 26.0923 131.4 24.8603 132.2C23.6443 132.984 21.7723 133.376 19.2443 133.376H10.6523ZM18.8843 131.72C19.7323 131.72 20.3963 131.488 20.8763 131.024C21.3563 130.544 21.5963 129.72 21.5963 128.552C21.5963 127.8 21.4923 127.184 21.2843 126.704C21.0923 126.208 20.7963 125.84 20.3963 125.6C20.0123 125.36 19.5243 125.24 18.9323 125.24H17.6363V131.72H18.8843ZM18.3083 123.584C18.9163 123.584 19.4203 123.488 19.8203 123.296C20.2203 123.104 20.5163 122.792 20.7083 122.36C20.9163 121.928 21.0203 121.36 21.0203 120.656C21.0203 119.616 20.7803 118.896 20.3003 118.496C19.8203 118.096 19.1403 117.896 18.2603 117.896H17.6363V123.584H18.3083Z" fill="white"/>
<path d="M42.3258 133.376V131.912H43.5978C43.7418 131.912 43.8858 131.872 44.0298 131.792C44.1738 131.696 44.2938 131.568 44.3898 131.408C44.4858 131.232 44.5338 131.024 44.5338 130.784V118.976C44.5338 118.688 44.4858 118.448 44.3898 118.256C44.2938 118.064 44.1738 117.928 44.0298 117.848C43.8858 117.752 43.7418 117.704 43.5978 117.704H42.3258V116.24H51.5658V117.704H50.2458C50.0538 117.704 49.8858 117.752 49.7418 117.848C49.6138 117.944 49.5098 118.088 49.4298 118.28C49.3658 118.456 49.3338 118.696 49.3338 119V130.736C49.3338 130.96 49.3738 131.168 49.4538 131.36C49.5498 131.536 49.6618 131.672 49.7898 131.768C49.9338 131.864 50.0858 131.912 50.2458 131.912H51.5658V133.376H42.3258Z" fill="white"/>
<path d="M66.9445 133.376V131.912H68.1685C68.3925 131.912 68.5765 131.864 68.7205 131.768C68.8645 131.656 68.9685 131.512 69.0325 131.336C69.1125 131.16 69.1525 130.96 69.1525 130.736V119C69.1525 118.616 69.1045 118.336 69.0085 118.16C68.9125 117.968 68.7845 117.848 68.6245 117.8C68.4645 117.736 68.2965 117.704 68.1205 117.704H66.9445V116.24H81.1765L81.2485 120.824H79.2565L79.1365 119.624C79.1045 119.192 79.0325 118.856 78.9205 118.616C78.8085 118.36 78.6405 118.176 78.4165 118.064C78.2085 117.952 77.9125 117.896 77.5285 117.896H73.9285V123.608H79.5925V125.24H73.9285V131.72H78.2245C78.5765 131.72 78.8645 131.648 79.0885 131.504C79.3125 131.36 79.4885 131.16 79.6165 130.904C79.7605 130.648 79.8565 130.344 79.9045 129.992L80.0965 128.792H82.0645L81.8965 133.376H66.9445Z" fill="white"/>
<path d="M107.068 133.616C105.132 133.616 103.516 133.248 102.22 132.512C100.924 131.776 99.9478 130.752 99.2918 129.44C98.6518 128.112 98.3318 126.56 98.3318 124.784C98.3318 123.056 98.6598 121.536 99.3158 120.224C99.9718 118.896 100.948 117.864 102.244 117.128C103.54 116.376 105.14 116 107.044 116C108.372 116 109.468 116.128 110.332 116.384C111.212 116.64 111.868 116.984 112.3 117.416C112.748 117.848 112.972 118.328 112.972 118.856C112.972 119.512 112.668 120.072 112.06 120.536C111.468 121 110.548 121.232 109.3 121.232C109.3 120.688 109.22 120.152 109.06 119.624C108.916 119.08 108.66 118.632 108.292 118.28C107.924 117.912 107.42 117.728 106.78 117.728C105.916 117.728 105.236 118.008 104.74 118.568C104.244 119.112 103.892 119.912 103.684 120.968C103.476 122.008 103.372 123.28 103.372 124.784C103.372 126.4 103.516 127.704 103.804 128.696C104.092 129.672 104.564 130.376 105.22 130.808C105.892 131.24 106.78 131.456 107.884 131.456C108.748 131.456 109.476 131.328 110.068 131.072C110.676 130.8 111.188 130.472 111.604 130.088C112.02 129.704 112.364 129.336 112.636 128.984C112.748 129.096 112.836 129.264 112.9 129.488C112.964 129.712 112.996 129.912 112.996 130.088C112.996 130.456 112.908 130.848 112.732 131.264C112.572 131.664 112.276 132.048 111.844 132.416C111.412 132.768 110.804 133.056 110.02 133.28C109.252 133.504 108.268 133.616 107.068 133.616Z" fill="white"/>
<path d="M128.932 133.376V131.912H130.204C130.396 131.912 130.556 131.856 130.684 131.744C130.828 131.632 130.94 131.488 131.02 131.312C131.1 131.12 131.14 130.92 131.14 130.712V118.976C131.14 118.688 131.084 118.448 130.972 118.256C130.876 118.064 130.74 117.928 130.564 117.848C130.404 117.752 130.212 117.704 129.988 117.704H128.932V116.24H137.692V117.704H136.804C136.612 117.704 136.452 117.752 136.324 117.848C136.196 117.928 136.1 118.056 136.036 118.232C135.972 118.392 135.94 118.6 135.94 118.856V123.608H141.052V118.928C141.052 118.656 141.012 118.432 140.932 118.256C140.868 118.064 140.764 117.928 140.62 117.848C140.476 117.752 140.284 117.704 140.044 117.704H139.3V116.24H148.06V117.704H146.788C146.596 117.704 146.428 117.752 146.284 117.848C146.14 117.928 146.028 118.064 145.948 118.256C145.884 118.432 145.852 118.656 145.852 118.928V130.664C145.852 130.904 145.892 131.12 145.972 131.312C146.052 131.504 146.164 131.656 146.308 131.768C146.452 131.864 146.612 131.912 146.788 131.912H148.06V133.376H139.3V131.912H140.068C140.292 131.912 140.476 131.856 140.62 131.744C140.764 131.632 140.868 131.472 140.932 131.264C141.012 131.056 141.052 130.824 141.052 130.568V125.264H135.94V130.712C135.94 130.92 135.972 131.12 136.036 131.312C136.1 131.488 136.196 131.632 136.324 131.744C136.452 131.856 136.612 131.912 136.804 131.912H137.692V133.376H128.932Z" fill="white"/>
<path d="M163.105 133.376V131.912H163.273C163.545 131.912 163.801 131.872 164.041 131.792C164.281 131.696 164.505 131.528 164.713 131.288C164.921 131.048 165.105 130.704 165.265 130.256L170.377 116.24H174.721L179.617 130.304C179.761 130.672 179.929 130.976 180.121 131.216C180.313 131.456 180.529 131.632 180.769 131.744C181.025 131.856 181.297 131.912 181.585 131.912H181.849V133.376H172.969V131.912H173.929C174.185 131.912 174.417 131.864 174.625 131.768C174.833 131.672 174.937 131.472 174.937 131.168C174.937 131.008 174.921 130.856 174.889 130.712C174.857 130.552 174.817 130.408 174.769 130.28C174.737 130.152 174.705 130.056 174.673 129.992L173.929 127.808H168.457L167.905 129.536C167.873 129.664 167.825 129.824 167.761 130.016C167.713 130.208 167.665 130.408 167.617 130.616C167.585 130.808 167.569 130.984 167.569 131.144C167.569 131.384 167.633 131.576 167.761 131.72C167.889 131.848 168.121 131.912 168.457 131.912H169.633V133.376H163.105ZM168.985 126.152H173.401L172.033 121.568C171.953 121.28 171.865 120.992 171.769 120.704C171.689 120.4 171.609 120.088 171.529 119.768C171.449 119.432 171.377 119.088 171.313 118.736C171.249 118.992 171.177 119.248 171.097 119.504C171.033 119.744 170.969 119.984 170.905 120.224C170.841 120.464 170.769 120.696 170.689 120.92C170.625 121.128 170.561 121.336 170.497 121.544L168.985 126.152Z" fill="white"/>
</svg>
